<?xml version="1.0" encoding="UTF-8"?>
<svg width="128px" height="128px" viewBox="0 0 128 128" version="1.1" xmlns="http://www.w3.org/2000/svg" xmlns:xlink="http://www.w3.org/1999/xlink">
    <title>btn/facebook</title>
    <g id="btn/facebook" stroke="none" stroke-width="1" fill="none" fill-rule="evenodd">
        <g id="facebook" transform="translate(30.000000, 0.000000)" fill-rule="nonzero">
            <path d="M64.2222222,30 C66.3380296,30 68,28.34975 68,26.25 L68,3.75 C68,1.64975 66.3380296,0 64.2222222,0 L41.5555556,0 C38.911363,0 36.4177778,0.375 34,1.12475 C23.12,4.34975 15.1111111,14.4 15.1111111,26.25 L15.1111111,45 L3.77777778,45 C1.66197037,45 0,46.64975 0,48.75 L0,71.25 C0,73.34975 1.66197037,75.5 3.77777778,75.5 L15.1111111,75.5 L15.1111111,124.25 C15.1111111,126.34975 16.7730815,128 18.8888889,128 L41.5555556,128 C43.671363,128 45.3333333,126.34975 45.3333333,124.25 L45.3333333,75.5 L60.4444444,75.5 C62.2577778,75.5 63.8444444,73.65 64.1466667,71.84975 L67.9244444,49.34975 C68.151363,48.3 67.8488889,47.175 67.0933333,46.35 C66.4130815,45.45 65.3558074,45 64.2222222,45 L45.3333333,45 L45.3333333,30 L64.2222222,30 Z" id="Path" fill="#737EE6"></path>
            <path d="M45.3333333,30 L45.3333333,45 L64.2222222,45 C65.3558074,45 66.4130815,45.45 67.0933333,46.35 C67.848637,47.175 68.1511111,48.3 67.9244444,49.34975 L64.1466667,71.84975 C63.8444444,73.65 62.2577778,75.5 60.4444444,75.5 L45.3333333,75.5 L45.3333333,124.25 C45.3333333,126.34975 43.671363,128 41.5555556,128 L34,128 L34,1.12475 C36.4177778,0.375 38.911363,0 41.5555556,0 L64.2222222,0 C66.3380296,0 68,1.64975 68,3.75 L68,26.25 C68,28.34975 66.3380296,30 64.2222222,30 L45.3333333,30 Z" id="Path" fill="#615AD3"></path>
        </g>
    </g>
</svg>