<?xml version="1.0" encoding="UTF-8"?>
<svg width="128px" height="120px" viewBox="0 0 128 120" version="1.1" xmlns="http://www.w3.org/2000/svg" xmlns:xlink="http://www.w3.org/1999/xlink">
    <title>btn/windows</title>
    <g id="btn/windows" stroke="none" stroke-width="1" fill="none" fill-rule="evenodd">
        <g fill-rule="nonzero" id="Path">
            <path d="M52.75,8.86017561 L52.75,56.2557296 L0,56.2557296 L0,18.759247 C0,16.8844229 1.4245,15.3093206 3.2995,15.0095988 L26.5,12.1598661 L52.75,8.86017561 Z" fill="#FF637B"></path>
            <path d="M52.75,63.7552761 L52.75,111.15083 L26.5,107.85114 L3.2995,105.001407 C1.4245,104.701185 0,103.126583 0,101.251759 L0,63.7552761 L52.75,63.7552761 L52.75,63.7552761 Z" fill="#25D9F8"></path>
            <path d="M128,63.7552761 L128,116.250352 C128,117.300253 127.5495,118.349905 126.7255,119.100084 C126.04975,119.699778 125.15,120 124.25,120 L123.7995,120 L94,116.325345 L60.25,112.125739 L60.25,63.7552761 L128,63.7552761 L128,63.7552761 Z" fill="#FDBF00"></path>
            <path d="M128,3.76090396 L128,56.2559796 L60.25,56.2559796 L60.25,7.96051001 L94,3.68591099 L123.7995,0.0112556978 C124.8505,-0.0637372674 125.89975,0.235984617 126.7255,0.91117128 C127.5495,1.66085096 128,2.71075247 128,3.76090396 Z" fill="#7FE881"></path>
            <polygon fill="#E63950" points="52.75 8.86017561 52.75 56.2559796 26.5 56.2559796 26.5 12.1598661"></polygon>
            <polygon fill="#00C0F1" points="26.5 63.7552761 52.75 63.7552761 52.75 111.15083 26.5 107.85114"></polygon>
            <path d="M128,3.76090396 L128,56.2559796 L94,56.2559796 L94,3.68591099 L123.7995,0.0112556978 C124.8505,-0.0637372674 125.89975,0.235984617 126.7255,0.91117128 C127.5495,1.66085096 128,2.71075247 128,3.76090396 Z" fill="#5BC980"></path>
            <path d="M94,63.7552761 L128,63.7552761 L128,116.250352 C128,117.300253 127.5495,118.349905 126.7255,119.100084 C126.04975,119.699778 125.15,120 124.25,120 L123.7995,120 L94,116.325345 L94,63.7552761 Z" fill="#FF9100"></path>
        </g>
    </g>
</svg>