<?xml version="1.0" encoding="UTF-8"?>
<svg width="128px" height="120px" viewBox="0 0 128 120" version="1.1" xmlns="http://www.w3.org/2000/svg" xmlns:xlink="http://www.w3.org/1999/xlink">
    <title>btn/youtube</title>
    <g id="btn/youtube" stroke="none" stroke-width="1" fill="none" fill-rule="evenodd">
        <g id="youtube" transform="translate(0.000000, 12.000000)" fill-rule="nonzero">
            <path d="M109.25,0 L18.75,0 C8.4,0 0,8.35692308 0,18.6538462 L0,78.3461538 C0,88.6430769 8.4,97 18.75,97 L109.25,97 C119.6,97 128,88.6430769 128,78.3461538 L128,18.6538462 C128,8.35692308 119.6,0 109.25,0 Z" id="Path" fill="#FF637B"></path>
            <path d="M128,18.6538462 L128,78.3461538 C128,88.6430769 119.6,97 109.25,97 L64,97 L64,0 L109.25,0 C119.6,0 128,8.35692308 128,18.6538462 Z" id="Path" fill="#E63950"></path>
            <path d="M84.54975,45.2169231 L64,33.8751359 L50.8,26.5630769 C49.67525,25.9659051 48.25025,25.9659051 47.125,26.6376923 C45.92525,27.3089821 45.25,28.5030769 45.25,29.8461538 L45.25,67.7505205 C45.25,69.0940949 45.99975,70.3623077 47.125,71.0335974 C48.329,71.6330077 49.66975,71.6335051 50.875,71.0335974 L64,63.4976923 L84.625,51.7082128 C85.82475,51.0364256 86.5,49.8428282 86.5,48.4997513 C86.5,47.1566744 85.75025,45.8882128 84.54975,45.2169231 Z" id="Path" fill="#FFF5F5"></path>
            <path d="M86.5,48.5 C86.5,49.8430769 85.82475,51.0366744 84.625,51.7084615 L64,63.4976923 L64,33.8751359 L84.55,45.2169231 C85.75025,45.8882128 86.5,47.1569231 86.5,48.5 Z" id="Path" fill="#EFE2DD"></path>
        </g>
    </g>
</svg>