<?xml version="1.0" encoding="UTF-8"?>
<svg width="32px" height="32px" viewBox="0 0 32 32" version="1.1" xmlns="http://www.w3.org/2000/svg" xmlns:xlink="http://www.w3.org/1999/xlink">
    <title>icon/logout</title>
    <g id="icon/logout" stroke="none" stroke-width="1" fill="none" fill-rule="evenodd">
        <g id="logout" fill="#828282" fill-rule="nonzero">
            <path d="M31.8990258,14.1578229 C31.8310222,13.9951267 31.7337044,13.8471187 31.6096978,13.7231121 L27.6107955,9.7242098 C27.089455,9.20418187 26.2467222,9.20418187 25.7253817,9.7242098 C25.2040412,10.2455503 25.2040412,11.0895956 25.7253817,11.6096236 L27.4494743,13.3337162 L20.0010118,13.3337162 C19.2636597,13.3337162 18.6676277,13.9310608 18.6676277,14.6671003 C18.6676277,15.4031398 19.2636597,16.0004844 20.0010118,16.0004844 L27.4494118,16.0004844 L25.7253192,17.724577 C25.2039787,18.2459175 25.2039787,19.0899628 25.7253192,19.6099908 C25.9853332,19.8713173 26.326664,20.0006993 26.6680574,20.0006993 C27.0094507,20.0006993 27.3507815,19.8713798 27.6107955,19.6099908 L31.6096978,15.6110885 C31.7337044,15.4883944 31.8310222,15.3403864 31.8990258,15.1763776 C32.0336581,14.8511727 32.0336581,14.4831529 31.8990258,14.1578229 Z" id="Path"></path>
            <path d="M22.6678425,18.6676902 C21.9304904,18.6676902 21.3344584,19.2650347 21.3344584,20.0010743 L21.3344584,26.6681199 L16.0008594,26.6681199 L16.0008594,5.33359897 C16.0008594,4.74556739 15.6141512,4.22553946 15.0501209,4.05621786 L10.4191846,2.66683074 L21.3344584,2.66683074 L21.3344584,9.33387633 C21.3344584,10.0699159 21.9304904,10.6672604 22.6678425,10.6672604 C23.4051946,10.6672604 24.0012266,10.0699159 24.0012266,9.33387633 L24.0012266,1.33344662 C24.0012266,0.597344584 23.4051946,0 22.6678425,0 L1.33338412,0 C1.28538154,0 1.24269175,0.0200010743 1.19606424,0.0253138596 C1.13337337,0.0320017188 1.0760578,0.0426272896 1.01605457,0.0573155785 C0.876047053,0.0933175122 0.749352748,0.14800795 0.630721377,0.222636958 C0.601407302,0.241325462 0.565405368,0.242638032 0.537403864,0.263951677 C0.526653287,0.27201461 0.522653072,0.286702899 0.511964998,0.294703329 C0.366644693,0.409334486 0.245325677,0.549342006 0.15732095,0.716038459 C0.138632446,0.752040393 0.134632231,0.790729971 0.120006446,0.828044475 C0.0773166527,0.929362417 0.0306891483,1.02805522 0.0146882889,1.14006123 C0.00800042971,1.18006338 0.0200010743,1.21737789 0.0186885038,1.25606746 C0.0173759333,1.2827564 0,1.30675769 0,1.33338412 L0,28.001504 C0,28.6375381 0.449336634,29.184255 1.07205758,29.3082617 L14.4060863,31.9750924 C14.4927784,31.9937809 14.5807831,32.0017813 14.6674128,32.0017813 C14.9727417,32.0017813 15.2727578,31.8964632 15.5127707,31.6990776 C15.8207872,31.4457515 16.0007969,31.0683562 16.0007969,30.6683347 L16.0007969,29.3349506 L22.6678425,29.3349506 C23.4051946,29.3349506 24.0012266,28.737606 24.0012266,28.0015665 L24.0012266,20.0010743 C24.0012266,19.2650347 23.4051946,18.6676902 22.6678425,18.6676902 Z" id="Path"></path>
        </g>
    </g>
</svg>