<?xml version="1.0" encoding="UTF-8"?>
<svg width="128px" height="128px" viewBox="0 0 128 128" version="1.1" xmlns="http://www.w3.org/2000/svg" xmlns:xlink="http://www.w3.org/1999/xlink">
    <title>btn/attention</title>
    <g id="btn/attention" stroke="none" stroke-width="1" fill="none" fill-rule="evenodd">
        <g id="attention" transform="translate(0.000000, 5.000000)" fill-rule="nonzero">
            <path d="M126.087891,96.0960015 L77.540039,8.00580254 C74.9101562,3.23377003 69.8330078,0 64,0 C58.1669922,0 53.0898438,3.23377003 50.459961,8.00580254 L1.9121095,96.0960015 C0.694336,98.3052396 0,100.843617 0,103.545099 C0,112.08026 6.91796875,119 15.453125,119 L112.546875,119 C121.082031,119 128,112.08026 128,103.545099 C128,100.843617 127.305664,98.3052396 126.087891,96.0960015 Z" id="Path" fill="#000000"></path>
            <path d="M119.321289,99.8259221 L70.774414,11.7357233 C69.4111328,9.26278296 66.8154297,7.72745031 64,7.72745031 C62.6191405,7.72745031 61.2919922,8.0985867 60.1367188,8.76663221 C61.3378905,9.46104799 62.352539,10.4758131 63.0478515,11.7357233 L104.821289,111.27255 L112.546875,111.27255 C116.807617,111.27255 120.273438,107.806331 120.273438,103.545099 C120.273438,102.224635 119.953125,100.973515 119.321289,99.8259221 Z" id="Path" fill="#FFC43B"></path>
            <path d="M112.546875,103.545099 C112.546875,102.224635 112.226562,100.973515 111.594727,99.8259221 L63.0478515,11.7357233 C62.352539,10.4758131 61.3378905,9.46104799 60.1367187,8.76663221 C58.9365235,9.46104799 57.9208985,10.4758131 57.2265625,11.7357233 L8.678711,99.8268989 C8.046875,100.973515 7.7265625,102.224635 7.7265625,103.545099 C7.7265625,107.806331 11.1923827,111.27255 15.453125,111.27255 L104.821289,111.27255 C109.081055,111.27255 112.546875,107.806331 112.546875,103.545099 L112.546875,103.545099 Z" id="Path" fill="#FFC43B"></path>
            <g id="Group" transform="translate(60.136719, 41.727450)" fill="#000000">
                <path d="M7.7265625,50.2264738 C7.7265625,52.360508 5.99707025,54.0901987 3.86328125,54.0901987 C1.72949225,54.0901987 0,52.360508 0,50.2264738 C0,48.0934162 1.72949225,46.3627484 3.86328125,46.3627484 C5.99707025,46.3627484 7.7265625,48.0934162 7.7265625,50.2264738 Z" id="Path"></path>
                <path d="M3.86328125,0 C1.72949225,0 0,1.72969098 0,3.86372516 L0,34.7725498 C0,36.9056074 1.72949225,38.636275 3.86328125,38.636275 C5.99707025,38.636275 7.7265625,36.9056074 7.7265625,34.7725498 L7.7265625,3.86372516 C7.7265625,1.72969098 5.99707025,0 3.86328125,0 Z" id="Path"></path>
            </g>
        </g>
    </g>
</svg>