<?xml version="1.0" encoding="UTF-8"?>
<svg width="24px" height="24px" viewBox="0 0 24 24" version="1.1" xmlns="http://www.w3.org/2000/svg" xmlns:xlink="http://www.w3.org/1999/xlink">
    <title>icon/coin</title>
    <g id="icon/coin" stroke="none" stroke-width="1" fill="none" fill-rule="evenodd">
        <g id="coin" fill-rule="nonzero">
            <path d="M12.046875,0 C5.45165625,0 0,5.3578125 0,11.953125 C0,18.5484375 5.45165625,24 12.046875,24 C18.6420938,24 24,18.5484375 24,11.953125 C24,5.3578125 18.6420938,0 12.046875,0 Z" id="Path" fill="#FEDB41"></path>
            <path d="M24,11.953125 C24,18.5484375 18.6420938,24 12.046875,24 L12.046875,0 C18.6420938,0 24,5.3578125 24,11.953125 Z" id="Path" fill="#FFCC33"></path>
            <path d="M12.046875,2.8125 C7.01240625,2.8125 2.8125,6.91870312 2.8125,11.953125 C2.8125,16.9875469 7.01240625,21.1875 12.046875,21.1875 C17.0813437,21.1875 21.1875,16.9875469 21.1875,11.953125 C21.1875,6.91870312 17.0813437,2.8125 12.046875,2.8125 Z" id="Path" fill="#FEA832"></path>
            <path d="M21.1875,11.953125 C21.1875,16.9875469 17.0813437,21.1875 12.046875,21.1875 L12.046875,2.8125 C17.0813437,2.8125 21.1875,6.91870312 21.1875,11.953125 Z" id="Path" fill="#FE9923"></path>
            <path d="M13.453125,11.25 L12.75,11.25 L12.75,8.4375 L13.453125,8.4375 C13.8469219,8.4375 14.15625,8.74682813 14.15625,9.140625 C14.15625,10.0687031 15.5625,10.0687031 15.5625,9.140625 C15.5625,7.97339062 14.6204062,7.03125 13.453125,7.03125 L12.75,7.03125 L12.75,6.328125 C12.75,5.86401563 12.3984375,5.625 12.046875,5.625 C11.6953125,5.625 11.34375,5.86401563 11.34375,6.328125 L11.34375,7.03125 L10.546875,7.03125 C9.37959375,7.03125 8.4375,7.97339062 8.4375,9.140625 L8.4375,10.546875 C8.4375,11.7141094 9.37959375,12.65625 10.546875,12.65625 L11.34375,12.65625 L11.34375,15.5625 L10.546875,15.5625 C10.1530781,15.5625 9.84375,15.2531719 9.84375,14.859375 C9.84375,13.9312969 8.4375,13.9312969 8.4375,14.859375 C8.4375,16.0266094 9.37959375,16.96875 10.546875,16.96875 L11.34375,16.96875 L11.34375,17.671875 C11.34375,18.1359844 11.6953125,18.375 12.046875,18.375 C12.3984375,18.375 12.75,18.1359844 12.75,17.671875 L12.75,16.96875 L13.453125,16.96875 C14.6204062,16.96875 15.5625,16.0266094 15.5625,14.859375 L15.5625,13.359375 C15.5625,12.1921406 14.6204062,11.25 13.453125,11.25 Z M11.34375,11.25 L10.546875,11.25 C10.1530781,11.25 9.84375,10.9406719 9.84375,10.546875 L9.84375,9.140625 C9.84375,8.74682813 10.1530781,8.4375 10.546875,8.4375 L11.34375,8.4375 L11.34375,11.25 Z M14.15625,14.859375 C14.15625,15.2531719 13.8469219,15.5625 13.453125,15.5625 L12.75,15.5625 L12.75,12.65625 L13.453125,12.65625 C13.8469219,12.65625 14.15625,12.9655781 14.15625,13.359375 L14.15625,14.859375 Z" id="Shape" fill="#FEDB41"></path>
            <path d="M13.453125,11.25 L12.75,11.25 L12.75,8.4375 L13.453125,8.4375 C13.8469219,8.4375 14.15625,8.74682813 14.15625,9.140625 C14.15625,10.0687031 15.5625,10.0687031 15.5625,9.140625 C15.5625,7.97339062 14.6204062,7.03125 13.453125,7.03125 L12.75,7.03125 L12.75,6.328125 C12.75,5.86401563 12.3984375,5.625 12.046875,5.625 L12.046875,18.375 C12.3984375,18.375 12.75,18.1359844 12.75,17.671875 L12.75,16.96875 L13.453125,16.96875 C14.6204062,16.96875 15.5625,16.0266094 15.5625,14.859375 L15.5625,13.359375 C15.5625,12.1921406 14.6204062,11.25 13.453125,11.25 Z M14.15625,14.859375 C14.15625,15.2531719 13.8469219,15.5625 13.453125,15.5625 L12.75,15.5625 L12.75,12.65625 L13.453125,12.65625 C13.8469219,12.65625 14.15625,12.9655781 14.15625,13.359375 L14.15625,14.859375 Z" id="Shape" fill="#FFCC33"></path>
        </g>
    </g>
</svg>