<?xml version="1.0" encoding="UTF-8"?>
<svg width="20px" height="21px" viewBox="0 0 20 21" version="1.1" xmlns="http://www.w3.org/2000/svg" xmlns:xlink="http://www.w3.org/1999/xlink">
    <title>icon/edit</title>
    <g id="icon/edit" stroke="none" stroke-width="1" fill="none" fill-rule="evenodd">
        <polygon id="XMLID_845_" fill="#FFFFFF" fill-rule="nonzero" points="9.44439506 0.488161243 9.44439506 5.55532716 14.5117276 5.55532716"></polygon>
        <path d="M7.22230864,18.3331296 L7.22230864,17.2033644 C7.22230864,16.5355385 7.48241686,15.9077121 7.95457828,15.4356063 L8.9459006,14.444284 L4.16667593,14.444284 C3.70645882,14.444284 3.33335185,14.071177 3.33335185,13.6109599 C3.33335185,13.1507428 3.70645882,12.7776358 4.16667593,12.7776358 L10.6124932,12.7776358 L14.8802236,8.50984989 C14.9189453,8.4711281 14.9591116,8.43435073 14.9998333,8.39851779 L14.9998333,7.22197531 L8.61101543,7.22197531 C8.15079832,7.22197531 7.77769136,6.84886835 7.77769136,6.38865124 L7.77769136,0 L0.833324074,0 C0.373106965,0 0,0.373106965 0,0.833324074 L0,17.4998056 C0,17.9600227 0.373106965,18.3331296 0.833324074,18.3331296 L7.22230864,18.3331296 Z M4.16667593,9.44433951 L10.8332685,9.44433951 C11.2934856,9.44433951 11.6665926,9.81744647 11.6665926,10.2776636 C11.6665926,10.7378807 11.2934856,11.1109877 10.8332685,11.1109877 L4.16667593,11.1109877 C3.70645882,11.1109877 3.33335185,10.7378807 3.33335185,10.2776636 C3.33335185,9.81744647 3.70645882,9.44433951 4.16667593,9.44433951 Z" id="XMLID_846_" fill="#FFFFFF" fill-rule="nonzero"></path>
        <path d="M19.7558916,12.2067533 L17.237364,9.68822569 C17.0746436,9.52550527 16.8613682,9.44411729 16.6481484,9.44411729 C16.4349285,9.44411729 16.2215975,9.52550527 16.0588771,9.68822569 L14.9999444,10.7472139 L9.13306519,16.6141487 C8.97678915,16.7704248 8.88895679,16.9823669 8.88895679,17.2033644 L8.88895679,18.3331296 L8.88895679,19.7218364 C8.88895679,20.1820535 9.26206375,20.5551605 9.72228086,20.5551605 L12.2406973,20.5551605 C12.4617504,20.5551605 12.6736925,20.4673281 12.8299686,20.3110521 L19.7558916,13.3852402 C19.9122232,13.2289641 20,13.017022 20,12.7960245 C20,12.5749714 19.9121676,12.3630293 19.7558916,12.2067533 Z" id="XMLID_849_" fill="#FFFFFF" fill-rule="nonzero"></path>
    </g>
</svg>