<?xml version="1.0" encoding="UTF-8"?>
<svg width="20px" height="20px" viewBox="0 0 20 20" version="1.1" xmlns="http://www.w3.org/2000/svg" xmlns:xlink="http://www.w3.org/1999/xlink">
    <title>icon/google</title>
    <g id="icon/google" stroke="none" stroke-width="1" fill="none" fill-rule="evenodd">
        <g id="Google__G__Logo" fill-rule="nonzero">
            <path d="M19.9813084,10.2344322 C19.9813084,9.55677656 19.9252336,8.87545788 19.8056075,8.20879121 L10.2093458,8.20879121 L10.2093458,12.047619 L15.7046729,12.047619 C15.4766355,13.2857143 14.7439252,14.3809524 13.671028,15.0769231 L13.671028,17.5677656 L16.9495327,17.5677656 C18.8747664,15.8315018 19.9813084,13.2673993 19.9813084,10.2344322 Z" id="Path" fill="#4285F4"></path>
            <path d="M10.2093458,19.974359 C12.953271,19.974359 15.2672897,19.0915751 16.953271,17.5677656 L13.6747664,15.0769231 C12.7626168,15.6849817 11.5850467,16.029304 10.2130841,16.029304 C7.5588785,16.029304 5.30841121,14.2747253 4.50093458,11.9157509 L1.11775701,11.9157509 L1.11775701,14.4835165 C2.84485981,17.8498168 6.36261682,19.974359 10.2093458,19.974359 Z" id="Path" fill="#34A853"></path>
            <path d="M4.49719626,11.9157509 C4.07102804,10.6776557 4.07102804,9.33699634 4.49719626,8.0989011 L4.49719626,5.53113553 L1.11775701,5.53113553 C-0.325233645,8.34798535 -0.325233645,11.6666667 1.11775701,14.4835165 L4.49719626,11.9157509 L4.49719626,11.9157509 Z" id="Path" fill="#FBBC04"></path>
            <path d="M10.2093458,3.98168498 C11.6598131,3.95970696 13.0616822,4.49450549 14.1121495,5.47619048 L17.0168224,2.63003663 C15.1775701,0.937728938 12.7364486,0.00732600733 10.2093458,0.0366300366 C6.36261682,0.0366300366 2.84485981,2.16117216 1.11775701,5.53113553 L4.49719626,8.0989011 C5.30093458,5.73626374 7.55514019,3.98168498 10.2093458,3.98168498 Z" id="Path" fill="#EA4335"></path>
        </g>
    </g>
</svg>