<?xml version="1.0" encoding="UTF-8"?>
<svg width="48px" height="48px" viewBox="0 0 48 48" version="1.1" xmlns="http://www.w3.org/2000/svg" xmlns:xlink="http://www.w3.org/1999/xlink">
    <title>icon/line</title>
    <g id="icon/line" stroke="none" stroke-width="1" fill="none" fill-rule="evenodd">
        <g id="LINE-Circle" fill-rule="nonzero">
            <circle id="Oval" fill="#00B900" cx="24" cy="24" r="24"></circle>
            <g id="Group" transform="translate(8.000000, 9.600000)">
                <path d="M31.96,12.96 C31.96,5.8 24.8,0 16,0 C7.2,0 0.04,5.8 0.04,12.96 C0.04,19.36 5.72,24.72 13.4,25.76 C13.92,25.88 14.64,26.12 14.8,26.56 C14.96,26.96 14.92,27.6 14.84,28 C14.84,28 14.64,29.12 14.6,29.36 C14.52,29.76 14.28,30.92 16,30.24 C17.72,29.52 25.2,24.84 28.56,20.96 L28.56,20.96 C30.84,18.4 31.96,15.8 31.96,12.96" id="Path" fill="#FFFFFF"></path>
                <g transform="translate(5.200000, 9.200000)" fill="#00B900" id="Path">
                    <path d="M7.56,0.32 L6.44,0.32 C6.28,0.32 6.12,0.44 6.12,0.64 L6.12,7.6 C6.12,7.76 6.24,7.92 6.44,7.92 L7.56,7.92 C7.72,7.92 7.88,7.8 7.88,7.6 L7.88,0.6 C7.88,0.44 7.72,0.32 7.56,0.32"></path>
                    <path d="M15.28,0.32 L14.16,0.32 C14,0.32 13.84,0.44 13.84,0.64 L13.84,4.76 L10.64,0.44 C10.64,0.44 10.64,0.4 10.6,0.4 C10.6,0.4 10.6,0.4 10.6,0.4 C10.6,0.4 10.6,0.4 10.6,0.4 C10.6,0.4 10.6,0.4 10.6,0.4 C10.6,0.4 10.6,0.4 10.6,0.4 C10.6,0.4 10.6,0.4 10.6,0.4 C10.6,0.4 10.6,0.4 10.6,0.4 C10.6,0.4 10.6,0.4 10.6,0.4 C10.6,0.4 10.6,0.4 10.6,0.4 C10.6,0.4 10.6,0.4 10.6,0.4 C10.6,0.4 10.6,0.4 10.6,0.4 C10.6,0.4 10.6,0.4 10.6,0.4 C10.6,0.4 10.6,0.4 10.6,0.4 C10.6,0.4 10.6,0.4 10.6,0.4 C10.6,0.4 10.6,0.4 10.6,0.4 C10.6,0.4 10.6,0.4 10.6,0.4 C10.6,0.4 10.6,0.4 10.6,0.4 C10.6,0.4 10.6,0.4 10.6,0.4 C10.6,0.4 10.6,0.4 10.6,0.4 L9.48,0.4 C9.32,0.4 9.16,0.52 9.16,0.72 L9.16,7.68 C9.16,7.84 9.28,8 9.48,8 L10.4,8 C10.56,8 10.72,7.88 10.72,7.68 L10.72,3.44 L13.92,7.76 C13.96,7.8 13.96,7.8 14,7.84 C14,7.84 14,7.84 14,7.84 C14,7.84 14,7.84 14,7.84 C14,7.84 14,7.84 14,7.84 C14,7.84 14,7.84 14,7.84 C14,7.84 14,7.84 14,7.84 C14,7.84 14,7.84 14,7.84 C14,7.84 14,7.84 14.04,7.84 C14.04,7.84 14.04,7.84 14.04,7.84 C14.08,7.84 14.08,7.84 14.12,7.84 L15.24,7.84 C15.4,7.84 15.56,7.72 15.56,7.52 L15.56,0.6 C15.56,0.44 15.44,0.32 15.28,0.32"></path>
                    <path d="M4.84,6.16 L1.8,6.16 L1.8,0.6 C1.8,0.44 1.68,0.28 1.48,0.28 L0.4,0.28 C0.24,0.28 0.08,0.4 0.08,0.6 L0.08,7.56 L0.08,7.56 C0.08,7.64 0.12,7.72 0.16,7.76 C0.16,7.76 0.16,7.76 0.16,7.76 C0.16,7.76 0.16,7.76 0.16,7.76 C0.2,7.8 0.28,7.84 0.36,7.84 L0.36,7.84 L4.84,7.84 C5,7.84 5.16,7.72 5.16,7.52 L5.16,6.4 C5.16,6.28 5.04,6.16 4.84,6.16"></path>
                    <path d="M21.44,2.04 C21.6,2.04 21.76,1.92 21.76,1.72 L21.76,0.6 C21.76,0.44 21.64,0.28 21.44,0.28 L16.96,0.28 L16.96,0.28 C16.88,0.28 16.8,0.32 16.76,0.36 C16.76,0.36 16.76,0.36 16.76,0.36 C16.76,0.36 16.76,0.36 16.76,0.36 C16.72,0.4 16.68,0.48 16.68,0.56 L16.68,0.56 L16.68,7.52 L16.68,7.52 C16.68,7.6 16.72,7.68 16.76,7.72 C16.76,7.72 16.76,7.72 16.76,7.72 C16.76,7.72 16.76,7.72 16.76,7.72 C16.8,7.76 16.88,7.8 16.96,7.8 L16.96,7.8 L21.44,7.8 C21.6,7.8 21.76,7.68 21.76,7.48 L21.76,6.36 C21.76,6.2 21.64,6.04 21.44,6.04 L18.4,6.04 L18.4,4.88 L21.44,4.88 C21.6,4.88 21.76,4.76 21.76,4.56 L21.76,3.44 C21.76,3.28 21.64,3.12 21.44,3.12 L18.4,3.12 L18.4,1.96 L21.44,1.96 L21.44,2.04 Z"></path>
                </g>
            </g>
        </g>
    </g>
</svg>