<?xml version="1.0" encoding="UTF-8"?>
<svg width="128px" height="128px" viewBox="0 0 128 128" version="1.1" xmlns="http://www.w3.org/2000/svg" xmlns:xlink="http://www.w3.org/1999/xlink">
    <title>btn/line</title>
    <g id="btn/line" stroke="none" stroke-width="1" fill="none" fill-rule="evenodd">
        <g id="line" transform="translate(0.000000, 3.000000)">
            <rect id="Rectangle" fill="#FFFFFF" x="19" y="33" width="91" height="45"></rect>
            <path d="M64,0 C28.72,0 0,23.5203195 0,52.4260327 C0,78.3154976 22.7733333,100.006815 53.52,104.130091 C55.6053333,104.573972 58.4426667,105.52056 59.1626667,107.306778 C59.8026667,108.927209 59.584,111.430054 59.3653333,113.120009 L58.4906667,118.607014 C58.2506667,120.227445 57.2106667,124.987127 64.0853333,122.077838 C70.9706667,119.179245 100.970667,100.129818 114.410667,84.5405208 C123.605333,74.3794005 128,63.9669262 128,52.4260327 C128,23.5203195 99.28,0 64,0 Z M38.9493333,69.6143699 L26.224,69.6143699 C24.384,69.6143699 22.864,68.0795059 22.864,66.2291124 L22.864,40.5535659 C22.864,38.6978244 24.384,37.1629605 26.224,37.1629605 C28.08,37.1629605 29.584,38.6978244 29.584,40.5535659 L29.584,62.838507 L38.9493333,62.838507 C40.8053333,62.838507 42.304,64.3626751 42.304,66.2291124 C42.304,68.0795059 40.8,69.6143699 38.9493333,69.6143699 L38.9493333,69.6143699 Z M52.1013333,66.2291124 C52.1013333,68.0795059 50.5973333,69.6143699 48.736,69.6143699 C46.896,69.6143699 45.392,68.0795059 45.392,66.2291124 L45.392,40.5535659 C45.392,38.6978244 46.896,37.1629605 48.752,37.1629605 C50.5973333,37.1629605 52.1013333,38.6978244 52.1013333,40.5535659 L52.1013333,66.2291124 Z M82.72,66.2291124 C82.72,67.683757 81.792,68.9726149 80.416,69.4378872 C80.0746667,69.5501944 79.7066667,69.6036739 79.3546667,69.6036739 C78.2293333,69.6036739 77.2693333,69.1170098 76.6346667,68.2559885 L63.6053333,50.4045046 L63.6053333,66.2237645 C63.6053333,68.0741579 62.1173333,69.6090219 60.24,69.6090219 C58.3946667,69.6090219 56.9013333,68.0741579 56.9013333,66.2237645 L56.9013333,40.5535659 C56.9013333,39.0989213 57.824,37.8100634 59.1946667,37.350139 C59.5146667,37.2271359 59.92,37.1736564 60.2293333,37.1736564 C61.2693333,37.1736564 62.2293333,37.735192 62.8693333,38.5427336 L76,56.463741 L76,40.5535659 C76,38.6978244 77.504,37.1629605 79.36,37.1629605 C81.2,37.1629605 82.72,38.6978244 82.72,40.5535659 L82.72,66.2291124 Z M103.28,49.9980598 C105.141333,49.9980598 106.64,51.5329237 106.64,53.3940131 C106.64,55.2497546 105.141333,56.7846185 103.28,56.7846185 L93.92,56.7846185 L93.92,62.838507 L103.28,62.838507 C105.141333,62.838507 106.64,64.3626751 106.64,66.2291124 C106.64,68.0795059 105.141333,69.6143699 103.28,69.6143699 L90.5546667,69.6143699 C88.7146667,69.6143699 87.2106667,68.0795059 87.2106667,66.2291124 L87.2106667,40.5535659 C87.2106667,38.6978244 88.7146667,37.1629605 90.5706667,37.1629605 L103.296,37.1629605 C105.141333,37.1629605 106.64,38.6978244 106.64,40.5535659 C106.64,42.4306991 105.141333,43.9441713 103.28,43.9441713 L93.92,43.9441713 L93.92,49.9980598 L103.28,49.9980598 Z" id="Shape" fill="#02C100" fill-rule="nonzero"></path>
        </g>
    </g>
</svg>