<?xml version="1.0" encoding="UTF-8"?>
<svg width="32px" height="32px" viewBox="0 0 32 32" version="1.1" xmlns="http://www.w3.org/2000/svg" xmlns:xlink="http://www.w3.org/1999/xlink">
    <title>icon/vip</title>
    <g id="icon/vip" stroke="none" stroke-width="1" fill="none" fill-rule="evenodd">
        <g id="crown" transform="translate(0.000000, 4.000000)" fill-rule="nonzero">
            <path d="M4.31320078,11.2298517 L5.69637427,4.42453197 C5.85462768,3.64579028 6.8780039,3.4170844 7.36243275,4.05268542 L11.4591813,9.42770332 C12.1094737,10.2809003 11.3051696,10.4798977 8.6099961,13.7508951 C5.03959454,12.0277442 4.08240156,12.3658312 4.31320078,11.2298517 Z" id="Path" fill="#FFC34D"></path>
            <path d="M23.3936218,13.7508951 C20.6832904,10.5502404 19.8148616,10.3030588 20.4820585,9.42770332 L24.578807,4.05268542 C25.0631735,3.41726854 26.0865497,3.64554476 26.2448655,4.42453197 L27.628039,11.2298517 C27.8686316,12.4140153 26.7119532,12.1147212 23.3936218,13.7508951 Z" id="Path" fill="#FF9933"></path>
            <path d="M30.4454737,7.54895141 L23.7448109,12.4532992 L16.7827836,0.465575448 C16.6037583,0.156828645 16.2881248,0.0021483376 15.9712437,0.0021483376 C15.6549864,0.0021483376 15.3381053,0.156828645 15.1584561,0.465575448 L8.19642885,12.4532992 L1.49576608,7.54895141 C0.790269006,7.03273657 -0.185325536,7.67785166 0.030502924,8.51508951 L2.5880078,18.4158568 L4.28095127,19.4182097 L3.06332943,20.257289 L3.83557115,23.2465473 C3.94099025,23.6541176 4.31463548,23.9401535 4.74254971,23.9401535 L27.1986901,23.9401535 C27.6266043,23.9401535 28.0002495,23.6541176 28.1056686,23.2465473 L28.8779103,20.257289 L28.1343626,19.3365729 L29.353232,18.4158568 L31.9107368,8.51508951 C32.1271891,7.67601023 31.1497232,7.03396419 30.4454737,7.54895141 Z" id="Path" fill="#FFEA80"></path>
            <path d="M31.9107368,8.51508951 L29.353232,18.4158568 L28.1343626,19.3365729 L28.8779103,20.257289 L28.1056686,23.2465473 C28.0002495,23.6541176 27.6266043,23.9401535 27.1986901,23.9401535 L15.9712437,23.9401535 L15.9712437,0.0021483376 C16.2881248,0.0021483376 16.6037583,0.156828645 16.7827836,0.465575448 L23.7448109,12.4532992 L30.4454737,7.54895141 C31.1497232,7.03396419 32.1271891,7.67601023 31.9107368,8.51508951 Z" id="Path" fill="#FFC34D"></path>
            <path d="M19.5798207,14.2591304 L16.7728031,9.65554987 C16.5906589,9.35723785 16.2812632,9.20869565 15.9712437,9.20869565 C15.6606004,9.20869565 15.3493333,9.35846547 15.1684366,9.65554987 L12.3614191,14.2591304 C12.1836413,14.5506905 12.1836413,14.9152941 12.3614191,15.2068542 L15.1684366,19.8104348 C15.3505809,20.1087468 15.6612242,20.257289 15.9712437,20.257289 C16.2812632,20.2566752 16.5919064,20.1069054 16.7728031,19.8104348 L19.5798207,15.2068542 C19.7575984,14.9152941 19.7575984,14.5506905 19.5798207,14.2591304 Z" id="Path" fill="#FF6A4D"></path>
            <path d="M19.5798207,15.2068542 L16.7728031,19.8104348 C16.5919064,20.1069054 16.2812632,20.2566752 15.9712437,20.257289 L15.9712437,9.20869565 C16.2812632,9.20869565 16.5906589,9.35723785 16.7728031,9.65554987 L19.5798207,14.2591304 C19.7575984,14.5506905 19.7575984,14.9152941 19.5798207,15.2068542 L19.5798207,15.2068542 Z" id="Path" fill="#F03800"></path>
            <path d="M9.42091228,19.3365729 C9.42091228,19.8448082 9.00173099,20.257289 8.48523977,20.257289 L3.06332943,20.257289 L2.5880078,18.4158568 L8.48523977,18.4158568 C9.00173099,18.4158568 9.42091228,18.8283376 9.42091228,19.3365729 Z" id="Path" fill="#FFC34D"></path>
            <path d="M29.353232,18.4158568 L28.8779103,20.257289 L23.456,20.257289 C22.9395088,20.257289 22.5203275,19.8448082 22.5203275,19.3365729 C22.5203275,18.8283376 22.9395088,18.4158568 23.456,18.4158568 L29.353232,18.4158568 Z" id="Path" fill="#FF9933"></path>
        </g>
    </g>
</svg>