<?xml version="1.0" encoding="UTF-8"?>
<svg width="26px" height="26px" viewBox="0 0 26 26" version="1.1" xmlns="http://www.w3.org/2000/svg" xmlns:xlink="http://www.w3.org/1999/xlink">
    <title>icon/view/selected</title>
    <g id="icon/view/selected" stroke="none" stroke-width="1" fill="none" fill-rule="evenodd">
        <path d="M13,8.8817842e-15 C16.5806138,8.8817842e-15 19.6423976,1.27150533 22.1854461,3.81455387 C24.7284947,6.35760241 26,9.41938622 26,13 C26,16.5806138 24.7284947,19.6423976 22.1854461,22.1854457 C19.6423976,24.7284947 16.5806138,26 13,26 C9.41938622,26 6.35760241,24.7284947 3.81455434,22.1854457 C1.27150533,19.6423976 1.13686838e-13,16.5806138 1.13686838e-13,13 C1.13686838e-13,9.41938622 1.26133336,6.36777248 3.78403797,3.84506882 C6.34743233,1.2816754 9.41938622,8.8817842e-15 13,8.8817842e-15 Z M10.3755861,7.1408448 L10.3755861,18.8591552 L18.1877931,13 L10.3755861,7.1408448 Z" id="Combined-Shape" fill="#C62828"></path>
    </g>
</svg>