<?xml version="1.0" encoding="UTF-8"?>
<svg width="128px" height="128px" viewBox="0 0 128 128" version="1.1" xmlns="http://www.w3.org/2000/svg" xmlns:xlink="http://www.w3.org/1999/xlink">
    <title>btn/android</title>
    <g id="btn/android" stroke="none" stroke-width="1" fill="none" fill-rule="evenodd">
        <g fill-rule="nonzero" id="android">
            <g>
                <path d="M97.75,41.2530783 C97.75,43.3532538 96.10025,45.0029453 94,45.0029453 L34,45.0029453 C31.89975,45.0029453 30.25,43.3532538 30.25,41.2530783 C30.25,28.2035414 37.75,17.029188 48.625,11.4043876 L45.62475,5.4043505 C44.72475,3.60441437 45.475,1.3547442 47.35,0.379778802 C49.15,-0.520189261 51.39975,0.230034116 52.37475,2.10496758 L55.67475,8.7042334 C58.37475,7.95451 61.0745,7.50452597 63.99975,7.50452597 C66.925,7.50452597 69.62475,7.95451 72.32475,8.7042334 L75.62475,2.10496758 C76.59975,0.230034116 78.84975,-0.520189261 80.6495,0.379778802 C82.5245,1.3547442 83.27475,3.60466436 82.37475,5.4043505 L79.3745,11.4043876 C90.25,17.029188 97.75,28.2037914 97.75,41.2530783 Z" id="Path" fill="#7FE881"></path>
                <path d="M97.75,41.2530783 C97.75,43.3532538 96.10025,45.0029453 94,45.0029453 L64,45.0029453 L64,7.50427598 C66.925,7.50427598 69.625,7.95426001 72.325,8.7039834 L75.625,2.10471759 C76.6,0.229784125 78.85,-0.520439252 80.64975,0.379528811 C82.52475,1.35449421 83.275,3.60441437 82.375,5.40410051 L79.37475,11.4041376 C90.25,17.029188 97.75,28.2037914 97.75,41.2530783 Z" id="Path" fill="#5BC980"></path>
                <path d="M116.625,105.000816 C110.4215,105.000816 105.25,99.9544952 105.25,93.7512154 L105.25,63.7522799 C105.25,57.5490001 110.4215,52.5026791 116.625,52.5026791 C122.8285,52.5026791 128,57.5490001 128,63.7522799 L128,93.7512154 C128,99.9547452 122.82875,105.000816 116.625,105.000816 Z" id="Path" fill="#5BC980"></path>
                <path d="M11.375,105.000816 C5.1715,105.000816 0,99.9544952 0,93.7512154 L0,63.7522799 C0,57.5490001 5.1715,52.5026791 11.375,52.5026791 C17.5785,52.5026791 22.75,57.5490001 22.75,63.7522799 L22.75,93.7512154 C22.75,99.9547452 17.57875,105.000816 11.375,105.000816 Z" id="Path" fill="#7FE881"></path>
                <ellipse id="Oval" fill="#FFF5F5" cx="54" cy="26.2536106" rx="3.75" ry="3.74986693"></ellipse>
                <ellipse id="Oval" fill="#EFE2DD" cx="74" cy="26.2536106" rx="3.75" ry="3.74986693"></ellipse>
                <path d="M94,52.5026791 L34,52.5026791 C31.89975,52.5026791 30.25,54.1523706 30.25,56.2525461 L30.25,101.250949 C30.25,103.351125 31.89975,105.000816 34,105.000816 L37.75,105.000816 L37.75,116.750399 C37.75,122.975428 42.77475,128 49,128 C55.22525,128 60.25,122.975428 60.25,116.750399 L60.25,105.000816 L67.75,105.000816 L67.75,116.750399 C67.75,122.975428 72.77475,128 79,128 C85.22525,128 90.25,122.975428 90.25,116.750399 L90.25,105.000816 L94,105.000816 C96.10025,105.000816 97.75,103.351125 97.75,101.250949 L97.75,56.2525461 C97.75,54.1526206 96.10025,52.5026791 94,52.5026791 Z" id="Path" fill="#7FE881"></path>
                <path d="M97.75,56.2525461 L97.75,101.250949 C97.75,103.351125 96.10025,105.000816 94,105.000816 L90.25,105.000816 L90.25,116.750399 C90.25,122.975428 85.22525,128 79,128 C72.77475,128 67.75,122.975428 67.75,116.750399 L67.75,105.000816 L64,105.000816 L64,52.5026791 L94,52.5026791 C96.10025,52.5026791 97.75,54.1526206 97.75,56.2525461 Z" id="Path" fill="#5BC980"></path>
            </g>
        </g>
    </g>
</svg>