<?xml version="1.0" encoding="UTF-8"?>
<svg width="105px" height="128px" viewBox="0 0 105 128" version="1.1" xmlns="http://www.w3.org/2000/svg" xmlns:xlink="http://www.w3.org/1999/xlink">
    <title>btn/apple</title>
    <g id="btn/apple" stroke="none" stroke-width="1" fill="none" fill-rule="evenodd">
        <g fill-rule="nonzero" id="Path">
            <path d="M105,92.67475 C105,94.25 92.47525,127.77475 74.39975,127.77475 C69.975,127.77475 66.82475,126.5 64.04975,125.3 C61.64975,124.25 59.47475,123.35 56.25,123.12475 C55.8,123.04975 55.35,123.04975 54.825,123.04975 C52.79975,123.04975 50.25,124.02475 47.55025,125.075 C43.87475,126.425 39.675,128 34.94975,128 L34.8,128 C15.74975,127.925 0,89 0,69.19975 C0,36.87475 24.3,29.74975 33.59975,29.74975 C37.79975,29.74975 42.375,31.4 46.27475,32.9 C49.04975,33.875 51.97475,34.92475 53.55,34.92475 C54.14975,34.92475 55.12475,34.625 56.25,34.25 C56.99975,33.94975 57.89975,33.64975 58.72525,33.275 C63.00025,31.62475 68.25,29.525 74.4,29.525 C74.4,29.525 74.4,29.525 74.475,29.525 C79.05,29.525 92.92525,30.5 101.32525,43.025 L103.27525,46.02525 L100.42525,48.125 C96.45,51.2 89.1,56.75 89.1,67.69975 C89.1,80.675 97.425,85.7 101.4,88.1 C103.125,89.15 105,90.27475 105,92.67475 Z" fill="#EFE2DD"></path>
            <path d="M76.35,0 C76.725,15.29975 67.05,26.44975 56.25,27.87475 C55.05025,28.1 53.77475,28.175 52.5,28.1 C51.75025,22.925 53.325,17.675 56.25,13.175 C60.9,5.89975 69.14975,0 76.35,0 Z" fill="#FFF5F5"></path>
            <path d="M56.25,27.87475 L56.25,13.175 C60.9,5.89975 69.14975,0 76.35,0 C76.72475,15.29975 67.05,26.44975 56.25,27.87475 Z" fill="#CDBFBA"></path>
            <path d="M105,92.67475 C105,94.25 92.47525,127.77475 74.39975,127.77475 C69.975,127.77475 66.82475,126.5 64.04975,125.3 C61.64975,124.25 59.47475,123.35 56.25,123.12475 L56.25,34.25 C56.99975,33.94975 57.89975,33.64975 58.72525,33.275 C63.00025,31.62475 68.25,29.525 74.4,29.525 C74.4,29.525 74.4,29.525 74.475,29.525 C79.05,29.525 92.92525,30.5 101.32525,43.025 L103.27525,46.02525 L100.42525,48.125 C96.45,51.2 89.1,56.75 89.1,67.69975 C89.1,80.675 97.425,85.7 101.4,88.1 C103.125,89.15 105,90.27475 105,92.67475 Z" fill="#CDBFBA"></path>
        </g>
    </g>
</svg>