<?xml version="1.0" encoding="UTF-8"?>
<svg width="26px" height="26px" viewBox="0 0 26 26" version="1.1" xmlns="http://www.w3.org/2000/svg" xmlns:xlink="http://www.w3.org/1999/xlink">
    <title>icon/store/selected</title>
    <g id="icon/store/selected" stroke="none" stroke-width="1" fill="none" fill-rule="evenodd">
        <path d="M18.9976576,21.6056336 C19.5253715,21.0766809 20.1342649,20.8122069 20.8243567,20.8122069 C21.5144437,20.8122069 22.1131908,21.0766809 22.6206075,21.6056336 C23.1280289,22.1345877 23.3817325,22.7449105 23.3817325,23.4366198 C23.3817325,24.1283287 23.1280289,24.7284795 22.6206075,25.2370892 C22.1131908,25.7456989 21.5144437,26 20.8243567,26 C20.1342649,26 19.5253715,25.7456989 18.9976576,25.2370892 C18.4699438,24.7284795 18.2060892,24.1283287 18.2060892,23.4366198 C18.2060892,22.7449105 18.4699438,22.1345877 18.9976576,21.6056336 Z M0,0 L4.26229522,0 L5.48009237,2.56337921 L24.7213121,2.56337921 C25.0866528,2.56337921 25.3910972,2.69561384 25.6346592,2.96009255 C25.8782213,3.22457127 26,3.53990508 26,3.90610346 C26,4.10954754 25.9391083,4.31298687 25.8173296,4.51643095 L21.1896974,12.9389654 C20.7025733,13.8341212 19.951604,14.2816896 18.9367659,14.2816896 L9.25526911,14.2816896 L8.09835988,16.4178405 L8.03746818,16.6009397 C8.03746818,16.8043838 8.13895435,16.9061035 8.34192196,16.9061035 L23.3817325,16.9061035 L23.3817325,19.5305173 L7.79391083,19.5305173 C7.10382379,19.5305173 6.50507667,19.2660433 5.99766001,18.7370906 C5.49023863,18.2081332 5.23653502,17.5978105 5.23653502,16.9061035 C5.23653502,16.4992153 5.33801646,16.0923319 5.54098407,15.6854438 L7.3067914,12.4507024 L2.61826704,2.56337921 L0,2.56337921 L0,0 Z M5.9672118,21.6056336 C6.49493042,21.0766809 7.10382379,20.8122069 7.79391083,20.8122069 C8.48399787,20.8122069 9.09289124,21.0766809 9.62060986,21.6056336 C10.1483238,22.1345877 10.4121783,22.7449105 10.4121783,23.4366198 C10.4121783,24.1283287 10.1483238,24.7284795 9.62060986,25.2370892 C9.09289124,25.7456989 8.48399787,26 7.79391083,26 C7.10382379,26 6.50507667,25.7456989 5.99766001,25.2370892 C5.49023863,24.7284795 5.23653502,24.1283287 5.23653502,23.4366198 C5.23653502,22.7449105 5.48009237,22.1345877 5.9672118,21.6056336 Z" id="Fill-1" fill="#C62828"></path>
    </g>
</svg>